HIERARCHY
ROOT Hips
{
	OFFSET -3.958830 18.904000 13.208200
	CHANNELS 6 Xposition Yposition Zposition Zrotation Yrotation Xrotation 
	JOINT LHipJoint
	{
		OFFSET 0.000000 0.000000 0.000000
		CHANNELS 3 Zrotation Yrotation Xrotation
		JOINT LeftUpLeg
		{
			OFFSET 1.800000 -1.400000 0.085000
			CHANNELS 3 Zrotation Yrotation Xrotation
			JOINT LeftLeg
			{
				OFFSET 2.215000 -6.000000 0.000000
				CHANNELS 3 Zrotation Yrotation Xrotation
				JOINT LeftFoot
				{
					OFFSET 2.500000 -6.900000 0.000000
					CHANNELS 3 Zrotation Yrotation Xrotation
					JOINT LeftToeBase
					{
						OFFSET 0.200000 -0.500000 1.950000
						CHANNELS 3 Zrotation Yrotation Xrotation
						End Site
						{
							OFFSET 0.000000 0.000000 0.000000
						}
					}
				}
			}
		}
	}
	JOINT RHipJoint
	{
		OFFSET 0.000000 0.000000 0.000000
		CHANNELS 3 Zrotation Yrotation Xrotation
		JOINT RightUpLeg
		{
			OFFSET -1.800000 -1.400000 0.085000
			CHANNELS 3 Zrotation Yrotation Xrotation
			JOINT RightLeg
			{
				OFFSET -2.215000 -6.000000 0.000000
				CHANNELS 3 Zrotation Yrotation Xrotation
				JOINT RightFoot
				{
					OFFSET -2.500000 -6.900000 0.000000
					CHANNELS 3 Zrotation Yrotation Xrotation
					JOINT RightToeBase
					{
						OFFSET -0.200000 -0.500000 1.950000
						CHANNELS 3 Zrotation Yrotation Xrotation
						End Site
						{
							OFFSET 0.000000 0.000000 0.000000
						}
					}
				}
			}
		}
	}
	JOINT LowerBack
	{
		OFFSET 0.000000 0.000000 0.000000
		CHANNELS 3 Zrotation Yrotation Xrotation
		JOINT Spine
		{
			OFFSET -0.087000 1.940000 -0.288900
			CHANNELS 3 Zrotation Yrotation Xrotation
			JOINT Spine1
			{
				OFFSET 0.000000 1.950000 0.060000
				CHANNELS 3 Zrotation Yrotation Xrotation
				JOINT Neck
				{
					OFFSET 0.000000 0.000000 0.000000
					CHANNELS 3 Zrotation Yrotation Xrotation
					JOINT Neck1
					{
						OFFSET 0.000000 1.600000 0.340000
						CHANNELS 3 Zrotation Yrotation Xrotation
						JOINT Head
						{
							OFFSET 0.000000 1.667000 -0.240000
							CHANNELS 3 Zrotation Yrotation Xrotation
							End Site
							{
								OFFSET 0.000000 0.000000 0.000000
							}
						}
					}
				}
				JOINT LeftShoulder
				{
					OFFSET 0.000000 0.000000 0.000000
					CHANNELS 3 Zrotation Yrotation Xrotation
					JOINT LeftArm
					{
						OFFSET 2.700000 1.550000 -0.730000
						CHANNELS 3 Zrotation Yrotation Xrotation
						JOINT LeftForeArm
						{
							OFFSET 5.450000 0.000000 0.000000
							CHANNELS 3 Zrotation Yrotation Xrotation
							JOINT LeftHand
							{
								OFFSET 3.450000 0.000000 0.000000
								CHANNELS 3 Zrotation Yrotation Xrotation
								JOINT LeftHandIndex1
								{
									OFFSET 0.750000 0.000000 0.000000
									CHANNELS 3 Zrotation Yrotation Xrotation
									End Site
									{
										OFFSET 0.000000 0.000000 0.000000
									}
								}
							}
						}
					}
				}
				JOINT RightShoulder
				{
					OFFSET 0.000000 0.000000 0.000000
					CHANNELS 3 Zrotation Yrotation Xrotation
					JOINT RightArm
					{
						OFFSET -2.700000 1.550000 -0.730000
						CHANNELS 3 Zrotation Yrotation Xrotation
						JOINT RightForeArm
						{
							OFFSET -5.450000 0.000000 0.000000
							CHANNELS 3 Zrotation Yrotation Xrotation
							JOINT RightHand
							{
								OFFSET -3.450000 0.000000 0.000000
								CHANNELS 3 Zrotation Yrotation Xrotation
								JOINT RightHandIndex1
								{
									OFFSET -0.750000 0.000000 0.000000
									CHANNELS 3 Zrotation Yrotation Xrotation
									End Site
									{
										OFFSET 0.000000 0.000000 0.000000
									}
								}
							}
						}
					}
				}
			}
		}
	}
}
MOTION
Frames: 6
Frame Time: 0.016667
-0.413810 15.645210 -3.056820 2.942247 -7.598432 -8.291652 -15.317170 11.385028 4.265292 30.624706 -1.391895 -29.296238 -7.399070 20.012759 54.395466 1.112065 11.603915 0.377803 0.494940 0.462610 0.328740 18.640010 -9.048283 3.489770 -38.569123 -0.379202 -36.013642 7.399007 -16.782888 50.590236 -1.005664 -8.930697 1.044658 0.296720 -0.138670 0.077950 -3.971925 -1.524162 -9.242898 19.198728 -6.881478 29.451139 -8.511289 -1.994204 8.477269 5.843220 -4.311540 -9.423955 -9.007398 -3.036895 33.911976 -2.067450 -7.253920 -15.695200 -23.273330 -15.126767 6.035465 -23.940072 -1.298322 -7.880162 1.459688 -58.005413 -2.279102 -3.285810 3.354228 0.194370 -0.121810 0.148790 0.123090 11.275970 20.575483 4.025483 -4.700027 18.099734 -9.484021 -106.417384 48.949264 -63.316256 2.035309 -1.050063 0.068090 0.119970 -0.184610 -0.047420 
-0.447230 15.625560 -3.067450 2.508870 -7.508829 -8.647593 -15.360528 11.369836 4.325453 31.531137 -1.247443 -29.338056 -7.473522 20.181850 54.364097 1.096882 11.657795 0.350646 0.500550 0.466690 0.346100 18.612139 -8.987627 3.456616 -38.092630 -0.264782 -35.958407 7.416853 -17.084735 51.698233 -1.054938 -9.102650 0.988846 0.302460 -0.142780 0.086920 -3.875215 -1.644264 -9.279022 18.049851 -6.173317 30.354808 -6.987535 -1.713368 8.591993 5.021731 -3.920437 -9.182448 -8.433021 -3.114990 34.011865 -2.374610 -6.771020 -15.893600 -22.693129 -15.089611 5.434060 -19.987166 -1.725529 -7.718087 5.788625 -63.115591 -4.708034 -3.316994 3.316179 0.203370 -0.114710 0.156100 0.114730 12.402220 20.126590 4.318979 -1.759838 17.974999 -8.901282 -108.139322 50.460036 -67.570208 2.033471 -0.984747 0.064910 0.120880 -0.181230 -0.059530 
-0.497790 15.582360 -3.094080 1.809875 -7.133290 -8.996728 -15.458898 11.257940 4.492574 33.158885 -1.044966 -30.015460 -7.875695 20.873426 54.853771 1.085102 11.887926 0.257759 0.526280 0.495820 0.381980 18.568320 -8.759720 3.439822 -37.722828 -0.151402 -36.151086 8.062773 -17.970685 53.307233 -1.154598 -9.435132 0.879763 0.330180 -0.154090 0.098180 -3.688592 -1.930955 -9.364336 16.042468 -4.974700 32.195660 -4.245549 -1.213259 8.383088 3.336999 -3.640276 -8.491919 -7.978581 -3.208880 33.013436 -2.381040 -5.838640 -17.500570 -21.329387 -14.588131 3.708176 -12.666949 -2.704062 -7.973257 27.842103 -72.906151 -19.858729 -3.323312 3.029476 0.229900 -0.110670 0.172170 0.099010 14.423339 19.115459 4.893997 3.133057 17.378344 -7.901169 -112.340443 52.960609 -76.819270 2.066467 -0.931421 0.055880 0.131890 -0.175650 -0.084450 
-0.560920 15.525090 -3.128130 0.890348 -6.875278 -9.291613 -15.604833 11.174071 4.685298 35.155299 -0.660503 -30.883653 -8.090003 21.619016 55.444124 1.102546 12.121421 0.172636 0.543770 0.526920 0.403540 18.493225 -8.371673 3.479067 -37.535805 0.143257 -36.483563 9.676339 -19.503785 55.060869 -1.295242 -9.915223 0.739954 0.350730 -0.159760 0.113370 -3.396240 -2.502659 -9.488187 13.290009 -3.668580 34.391517 -0.690078 -0.712484 7.596375 1.239207 -3.550317 -7.726585 -7.960453 -2.708935 32.214376 -2.710010 -4.146830 -18.454360 -19.399040 -14.163923 1.336821 -3.651605 -3.408565 -8.395317 60.744273 -78.104171 -44.055982 -3.131200 1.982921 0.241280 -0.098170 0.190700 0.095320 16.618265 18.284991 5.796864 7.917695 16.256048 -6.830118 -117.070689 56.090790 -88.053097 2.159920 -0.958985 0.055110 0.133150 -0.177650 -0.098370 
-0.623470 15.447980 -3.165300 -0.062834 -6.360170 -9.441500 -15.763629 11.065931 4.914853 37.272701 -0.184737 -32.209311 -7.919235 22.319866 56.405488 1.120652 12.372125 0.090056 0.552010 0.541680 0.421250 18.410558 -7.956659 3.534504 -37.767762 0.445566 -36.812943 11.303712 -21.134575 56.717357 -1.438206 -10.397574 0.605856 0.365340 -0.157700 0.120270 -3.071871 -3.088067 -9.651282 10.295369 -2.189465 36.751888 2.703567 -0.031295 7.345921 -0.762116 -3.540711 -7.820349 -8.039980 -2.061770 31.223017 -2.588940 -2.161780 -19.382190 -17.410872 -12.825230 0.811115 7.995036 -5.415965 -5.485303 92.901903 -66.425127 -60.257886 -3.151791 1.247246 0.260960 -0.087690 0.201720 0.088920 18.622013 17.386707 6.465946 12.189815 14.286152 -6.237287 -121.255337 60.489607 -100.704403 2.263121 -1.059097 0.041460 0.140300 -0.174670 -0.117170 
-0.687280 15.359940 -3.198660 -0.982559 -6.137093 -9.652927 -15.905607 10.972620 5.084439 39.331040 0.458237 -33.238154 -7.283789 22.913198 57.563704 1.147658 12.618189 0.026222 0.533600 0.516990 0.412540 18.345798 -7.503520 3.651552 -38.387034 0.911894 -37.194746 13.639455 -23.171220 58.222812 -1.586493 -10.947930 0.463541 0.364180 -0.131970 0.112410 -2.800514 -3.698463 -9.787121 7.462056 -0.908566 38.715811 5.744779 0.389822 6.622395 -2.803452 -4.519696 -7.593110 -10.032010 -0.777932 30.604219 -2.320260 -0.651110 -19.362410 -15.267376 -12.111196 -0.540161 17.147232 -5.215408 -6.061493 93.647736 -57.355233 -52.453886 -3.420273 2.032347 0.274050 -0.074080 0.185610 0.082490 20.605116 17.494761 7.483207 15.523543 12.206557 -6.334580 -129.926439 65.125027 -118.990494 2.321690 -1.506951 0.011340 0.159020 -0.155510 -0.130210 
